<svg width="47" height="47" viewBox="0 0 47 47" fill="none" xmlns="http://www.w3.org/2000/svg">
<g clip-path="url(#clip0_13_23)">
<path d="M27.3775 45.9807C27.1047 45.6276 26.9364 45.2051 26.8917 44.7611C26.8471 44.3171 26.9279 43.8695 27.1249 43.4691C27.6419 42.4645 27.8446 41.316 27.7124 40.185C27.6041 39.3781 27.3376 38.6004 26.9281 37.8967C26.5239 37.2022 25.9833 36.5966 25.3389 36.1166C23.1426 34.466 21.6015 32.0913 20.9885 29.4132C15.9712 35.9903 17.8953 39.7238 20.2981 43.0138C20.5799 43.3995 20.7283 43.8665 20.7209 44.3441C20.7134 44.8216 20.5506 45.2838 20.257 45.6605C19.9578 46.0417 19.5564 46.3301 19.0996 46.4918C18.6481 46.6503 18.1602 46.6738 17.6955 46.5594C14.4496 45.7663 11.3946 44.2564 9.32364 41.8506C8.14972 40.5142 7.24593 38.963 6.66227 37.2828C6.07195 35.5882 5.80976 33.7967 5.8897 32.0041C5.8897 32.0041 5.49901 24.769 14.2234 17.6808C14.2234 17.6808 24.534 8.93295 20.9561 2.46458C20.8243 2.1464 20.7852 1.7974 20.8435 1.45794C20.9017 1.11849 21.0548 0.802454 21.2851 0.54639C21.509 0.29533 21.8047 0.119226 22.1321 0.0419775C22.4595 -0.0352715 22.8027 -0.00992486 23.1152 0.114578L23.5441 0.284953C27.4277 2.73984 30.463 6.32894 32.2391 10.5662C33.9428 14.7169 33.9311 19.555 32.7796 23.8643C33.7343 23.0065 34.5303 21.9813 35.1325 20.8298L35.2177 20.6418C35.7993 19.2406 37.6294 19.6871 38.3168 20.6036C38.5694 21.0061 45.0495 30.4237 41.5686 38.3696C40.2959 40.7771 38.437 42.8249 36.1636 44.324C34.256 45.5898 32.1244 46.4801 29.8832 46.9471C29.42 47.0447 28.9384 47.0059 28.4967 46.8355C28.0511 46.6622 27.6632 46.367 27.3775 45.9836V45.9807ZM22.1899 23.1828C22.4642 23.0398 22.7819 23.0046 23.0809 23.0839C23.3798 23.1633 23.6383 23.3515 23.8055 23.6116C23.923 23.785 23.9994 23.9818 24.0258 24.1933L24.158 25.2185C24.2168 26.7195 24.1991 28.2881 24.7837 29.7305C25.3888 31.211 26.3288 32.5211 27.5215 33.5433C29.0579 34.5543 30.2472 36.0123 30.929 37.7205C31.5752 39.3772 31.6633 41.2161 31.1757 42.9286C32.6676 42.4581 34.0542 41.7029 35.2588 40.705L35.5614 40.4582C36.5484 39.6445 37.3621 38.6281 37.9496 37.4708C38.54 36.3163 38.8955 35.0473 38.9895 33.7431C39.1804 30.7321 38.1552 27.7095 36.5601 25.0128C35.8316 26.0703 34.827 26.8899 33.6667 27.3746C32.9411 27.683 32.1715 27.874 31.3872 27.9327C30.938 27.9616 30.49 27.8596 30.0976 27.639C29.6992 27.4125 29.3725 27.0787 29.1547 26.6755C28.9745 26.3503 28.8714 25.9881 28.8536 25.6167C28.8358 25.2454 28.9036 24.8749 29.0519 24.534C30.2621 21.6788 30.6381 18.5121 30.1241 15.4366C29.5155 11.9178 27.8303 8.67459 25.3007 6.15408C24.8425 12.6313 18.2008 18.662 16.8378 19.9603C16.6265 20.1594 16.407 20.3495 16.1798 20.5302C9.05339 26.3024 9.54102 31.5605 9.54102 31.7926C9.3995 33.8814 9.86792 35.9663 10.8893 37.7939C11.9615 39.6886 13.5037 41.2513 15.3543 42.3176C13.2188 37.6235 13.2188 31.9894 21.1001 23.9113L22.1928 23.1769L22.1899 23.1828Z" fill="#F05929"/>
</g>
<defs>
<clipPath id="clip0_13_23">
<rect width="47" height="47" fill="white"/>
</clipPath>
</defs>
</svg>
