<svg width="43" height="45" viewBox="0 0 43 45" fill="none" xmlns="http://www.w3.org/2000/svg">
<path d="M21.5 33.8889L14.559 40.7222M21.5 33.8889L28.441 40.7222M21.5 33.8889V22.5M21.5 33.8889V43M21.5 22.5V11.1111M21.5 22.5L11.4816 16.8054M21.5 22.5L31.5184 28.1942M21.5 22.5L11.4816 28.1942M21.5 22.5L31.5184 16.8054M21.5 11.1111L14.559 4.27778M21.5 11.1111L28.441 4.27778M21.5 11.1111V2M11.4816 16.8054L2 19.3066M11.4816 16.8054L8.94099 7.47093M11.4816 16.8054L3.46679 12.25M31.5184 28.1942L34.059 37.5288M31.5184 28.1942L41 25.6932M31.5184 28.1942L39.5331 32.75M11.4816 28.1942L8.94099 37.5288M11.4816 28.1942L2 25.6932M11.4816 28.1942L3.46693 32.75M31.5184 16.8054L41 19.3066M31.5184 16.8054L34.059 7.47093M31.5184 16.8054L39.5334 12.25" stroke="#5BA9D9" stroke-width="3" stroke-linecap="round" stroke-linejoin="round"/>
</svg>
